<svg width="844" height="262" viewBox="0 0 844 262" fill="none" xmlns="http://www.w3.org/2000/svg">
<path d="M26.0391 64.0234C27.6667 64.0885 30.1081 64.2513 33.3633 64.5117C44.431 65.2279 51.918 65.5859 55.8242 65.5859C59.7305 65.5859 67.0547 65.2279 77.7969 64.5117C81.0521 64.3164 83.5586 64.1536 85.3164 64.0234L83.7539 69.1992L68.4219 72.4219C66.9245 79.2578 65.4596 86.6471 64.0273 94.5898C62.6602 102.533 61.2604 111.191 59.8281 120.566H115.395C116.632 111.777 117.673 103.314 118.52 95.1758C119.366 86.9727 119.984 79.388 120.375 72.4219L104.164 69.1992L105.824 64.0234C112.66 64.5443 118.422 64.9349 123.109 65.1953C127.862 65.4557 131.833 65.5859 135.023 65.5859C139.516 65.5859 147.523 65.1953 159.047 64.4141C161.846 64.2188 163.962 64.0885 165.395 64.0234L163.832 69.1992L148.402 72.4219C144.301 91.5625 140.948 110.345 138.344 128.77C135.74 147.129 133.884 165.065 132.777 182.578L148.793 185.801L147.133 190.977C142.641 190.651 138.148 190.391 133.656 190.195C129.229 190.065 123.891 190 117.641 190C111.26 190 105.792 190.065 101.234 190.195C96.7422 190.391 92.2826 190.651 87.8555 190.977L89.418 185.801L104.848 182.578C106.54 174.701 108.168 166.204 109.73 157.09C111.358 147.975 112.921 138.275 114.418 127.988H58.7539C57.2565 138.405 56.0195 148.138 55.043 157.188C54.0664 166.237 53.3828 174.701 52.9922 182.578L69.0078 185.801L67.3477 190.977C62.8555 190.651 58.3633 190.391 53.8711 190.195C49.444 190.065 44.0729 190 37.7578 190C31.4427 190 26.0065 190.065 21.4492 190.195C16.957 190.391 12.4974 190.651 8.07031 190.977L9.63281 185.801L24.9648 182.578C28.9362 163.633 32.1914 144.948 34.7305 126.523C37.3346 108.034 39.2227 90 40.3945 72.4219L24.3789 69.1992L26.0391 64.0234ZM261.195 97.0312C257.549 112.917 253.871 134.01 250.16 160.312C246.449 186.549 243.129 204.323 240.199 213.633C235.577 228.151 227.374 239.805 215.59 248.594C203.871 257.383 190.72 261.777 176.137 261.777C169.822 261.777 165.004 260.703 161.684 258.555C158.298 256.471 156.605 253.477 156.605 249.57C156.605 247.552 157.029 245.599 157.875 243.711C158.656 241.823 159.893 240.065 161.586 238.438C165.948 242.669 170.538 245.924 175.355 248.203C180.238 250.482 185.056 251.621 189.809 251.621C205.564 251.621 217.706 224.961 226.234 171.641C227.732 162.266 228.904 154.974 229.75 149.766C220.701 162.201 211.456 172.227 202.016 179.844C192.641 187.396 185.154 191.172 179.555 191.172C177.211 191.172 175.453 190.521 174.281 189.219C173.109 187.917 172.523 185.898 172.523 183.164C172.523 178.021 173.988 168.548 176.918 154.746C179.913 140.879 181.41 130.495 181.41 123.594C181.41 122.357 181.182 121.38 180.727 120.664C180.271 119.948 179.62 119.59 178.773 119.59C177.862 119.59 176.723 120.143 175.355 121.25C173.988 122.357 172.133 124.277 169.789 127.012L165.785 123.398C171.97 115.586 177.992 109.466 183.852 105.039C189.711 100.612 194.691 98.3984 198.793 98.3984C201.462 98.3984 203.448 99.2773 204.75 101.035C206.117 102.728 206.801 105.332 206.801 108.848C206.801 115.293 205.271 125.319 202.211 138.926C199.216 152.533 197.719 162.103 197.719 167.637C197.719 168.874 197.979 169.85 198.5 170.566C199.086 171.283 199.835 171.641 200.746 171.641C205.759 171.641 212.432 165 220.766 151.719C229.164 138.438 234.503 123.008 236.781 105.43C240.688 104.258 246.449 102.305 254.066 99.5703C257.191 98.3984 259.568 97.5521 261.195 97.0312ZM300.062 181.211C302.471 181.862 304.587 182.35 306.41 182.676C308.233 183.001 309.861 183.164 311.293 183.164C316.501 183.164 320.766 181.895 324.086 179.355C327.471 176.751 330.401 172.422 332.875 166.367C335.349 160.443 337.432 153.314 339.125 144.98C340.818 136.647 341.664 129.648 341.664 123.984C341.664 121.771 341.273 120.143 340.492 119.102C339.776 117.995 338.637 117.441 337.074 117.441C331.605 117.441 324.704 123.952 316.371 136.973C308.103 149.993 302.667 164.74 300.062 181.211ZM306.02 139.805C315.525 127.109 324.867 117.051 334.047 109.629C343.292 102.142 350.909 98.3984 356.898 98.3984C360.414 98.3984 363.116 100.059 365.004 103.379C366.892 106.699 367.836 111.517 367.836 117.832C367.836 130.072 364.971 141.725 359.242 152.793C353.578 163.861 345.57 173.138 335.219 180.625C330.01 184.336 324.542 187.168 318.812 189.121C313.083 191.009 307.224 191.953 301.234 191.953H298.695C295.049 213.633 286.944 230.69 274.379 243.125C261.879 255.56 246.775 261.777 229.066 261.777C222.621 261.777 217.706 260.736 214.32 258.652C210.935 256.569 209.242 253.542 209.242 249.57C209.242 247.617 209.698 245.697 210.609 243.809C211.456 241.921 212.725 240.13 214.418 238.438C218.975 242.734 223.663 245.99 228.48 248.203C233.233 250.482 237.953 251.621 242.641 251.621C250.062 251.621 256.052 248.789 260.609 243.125C265.102 237.526 268.975 227.826 272.23 214.023C273.988 206.667 275.583 198.984 277.016 190.977C278.448 183.034 280.076 172.715 281.898 160.02C283.526 147.91 284.633 139.349 285.219 134.336C285.805 129.323 286.098 125.677 286.098 123.398C286.098 121.576 285.87 120.306 285.414 119.59C285.023 118.809 284.372 118.418 283.461 118.418C282.419 118.418 280.889 119.199 278.871 120.762C276.853 122.259 274.639 124.342 272.23 127.012L268.227 123.398C275.583 115.521 282.419 109.401 288.734 105.039C295.049 100.612 300.16 98.3984 304.066 98.3984C306.475 98.3984 308.233 99.1797 309.34 100.742C310.512 102.24 311.098 104.583 311.098 107.773C311.098 110.768 310.642 115.163 309.73 120.957C308.819 126.686 307.582 132.969 306.02 139.805ZM405.922 142.832C405.206 145.762 404.685 148.757 404.359 151.816C404.034 154.811 403.871 157.871 403.871 160.996C403.871 165.358 404.685 168.646 406.312 170.859C407.94 173.073 410.316 174.18 413.441 174.18C416.892 174.18 420.798 172.585 425.16 169.395C429.587 166.204 434.307 161.615 439.32 155.625L444.105 160.02C436.163 170.111 427.829 178.053 419.105 183.848C410.382 189.577 402.374 192.441 395.082 192.441C389.548 192.441 385.382 190.651 382.582 187.07C379.848 183.424 378.48 177.988 378.48 170.762C378.48 161.777 380.141 152.565 383.461 143.125C386.846 133.62 391.241 125.71 396.645 119.395C401.853 113.275 408.168 108.197 415.59 104.16C423.012 100.059 429.587 98.0078 435.316 98.0078C439.613 98.0078 442.999 99.1471 445.473 101.426C448.012 103.704 449.281 106.829 449.281 110.801C449.281 117.767 445.18 124.342 436.977 130.527C428.839 136.712 418.487 140.814 405.922 142.832ZM406.898 136.387C412.823 136.387 417.576 134.792 421.156 131.602C424.737 128.411 426.527 124.212 426.527 119.004C426.527 116.335 426.007 114.284 424.965 112.852C423.923 111.354 422.426 110.605 420.473 110.605C417.608 110.605 415.232 112.266 413.344 115.586C411.521 118.906 409.372 125.84 406.898 136.387ZM522.426 130.039C520.863 127.109 519.529 125.221 518.422 124.375C517.38 123.464 516.111 123.008 514.613 123.008C509.73 123.008 504.294 128.997 498.305 140.977C492.315 152.956 488.279 167.441 486.195 184.434C482.549 185.41 477.797 186.94 471.938 189.023C466.078 191.042 462.367 192.311 460.805 192.832C464.19 177.988 466.859 164.186 468.812 151.426C470.831 138.6 471.84 129.323 471.84 123.594C471.84 121.706 471.645 120.371 471.254 119.59C470.863 118.809 470.18 118.418 469.203 118.418C468.161 118.418 466.632 119.199 464.613 120.762C462.595 122.259 460.382 124.342 457.973 127.012L454.164 123.398C461 115.716 467.641 109.596 474.086 105.039C480.596 100.482 485.772 98.2031 489.613 98.2031C492.022 98.2031 493.845 99.0169 495.082 100.645C496.384 102.207 497.035 104.518 497.035 107.578C497.035 110.703 496.547 115.228 495.57 121.152C494.659 127.012 493.259 134.108 491.371 142.441L492.445 142.637C499.151 128.9 505.824 118.06 512.465 110.117C519.105 102.174 524.737 98.2031 529.359 98.2031C531.964 98.2031 534.014 99.1146 535.512 100.938C537.009 102.695 537.758 105.104 537.758 108.164C537.758 112.07 536.456 115.879 533.852 119.59C531.247 123.301 527.439 126.784 522.426 130.039ZM593.227 121.445C590.427 117.279 587.4 114.056 584.145 111.777C580.954 109.499 577.862 108.359 574.867 108.359C572.198 108.359 569.952 109.141 568.129 110.703C566.306 112.266 565.395 114.154 565.395 116.367C565.395 119.232 568.324 123.561 574.184 129.355C575.03 130.202 575.648 130.82 576.039 131.211C581.898 137.07 585.772 141.921 587.66 145.762C589.613 149.603 590.59 153.802 590.59 158.359C590.59 167.083 586.358 174.831 577.895 181.602C569.431 188.372 559.535 191.758 548.207 191.758C543.064 191.758 539.092 190.781 536.293 188.828C533.559 186.875 532.191 184.076 532.191 180.43C532.191 178.346 532.94 176.165 534.438 173.887C535.87 171.608 538.344 168.841 541.859 165.586C544.529 170.534 547.621 174.375 551.137 177.109C554.717 179.844 558.428 181.211 562.27 181.211C565.069 181.211 567.348 180.43 569.105 178.867C570.928 177.24 571.84 175.156 571.84 172.617C571.84 170.729 571.254 168.841 570.082 166.953C568.91 165.065 566.632 162.493 563.246 159.238C562.921 158.913 562.497 158.49 561.977 157.969C551.625 148.138 546.449 139.089 546.449 130.82C546.449 121.901 550.518 114.219 558.656 107.773C566.794 101.263 576.332 98.0078 587.27 98.0078C592.217 98.0078 596.059 98.9518 598.793 100.84C601.592 102.728 602.992 105.397 602.992 108.848C602.992 111.257 602.178 113.503 600.551 115.586C598.988 117.669 596.547 119.622 593.227 121.445ZM664.906 127.793C664.906 121.413 663.93 116.595 661.977 113.34C660.089 110.02 657.289 108.359 653.578 108.359C647.589 108.359 642.803 113.177 639.223 122.812C635.707 132.383 633.949 145.241 633.949 161.387C633.949 167.962 634.893 172.943 636.781 176.328C638.734 179.714 641.599 181.406 645.375 181.406C651.299 181.406 656.02 176.589 659.535 166.953C663.116 157.318 664.906 144.264 664.906 127.793ZM666.957 97.8125C675.03 97.8125 681.052 100.026 685.023 104.453C688.995 108.815 690.98 115.456 690.98 124.375C690.98 142.93 685.023 158.815 673.109 172.031C661.26 185.182 647.263 191.758 631.117 191.758C623.695 191.758 618.064 189.544 614.223 185.117C610.447 180.69 608.559 174.115 608.559 165.391C608.559 155.299 610.382 145.794 614.027 136.875C617.673 127.956 622.784 120.404 629.359 114.219C634.568 109.271 640.622 105.299 647.523 102.305C654.49 99.3099 660.967 97.8125 666.957 97.8125ZM788.344 52.793C784.633 50.319 780.987 48.431 777.406 47.1289C773.891 45.8268 770.603 45.1758 767.543 45.1758C758.168 45.1758 750.486 61.875 744.496 95.2734C743.845 99.1797 743.324 102.142 742.934 104.16C745.798 104.486 748.793 104.714 751.918 104.844C755.108 104.974 758.526 105.039 762.172 105.039C765.232 105.039 767.706 104.779 769.594 104.258C771.547 103.737 773.272 102.923 774.77 101.816L776.137 104.355C772.23 108.913 767.999 112.103 763.441 113.926C758.884 115.684 752.309 116.562 743.715 116.562H741.078C740.427 121.12 739.483 127.728 738.246 136.387C731.996 180.462 724.835 209.336 716.762 223.008C709.926 234.466 700.128 243.809 687.367 251.035C674.607 258.327 661.651 261.973 648.5 261.973C642.706 261.973 638.246 260.931 635.121 258.848C631.931 256.764 630.336 253.802 630.336 249.961C630.336 248.333 630.727 246.608 631.508 244.785C632.289 242.962 633.493 241.042 635.121 239.023C638.832 242.734 643.129 245.501 648.012 247.324C652.829 249.212 658.201 250.156 664.125 250.156C673.109 250.156 680.434 247.91 686.098 243.418C691.762 238.991 696.221 231.927 699.477 222.227C703.253 210.964 708.103 185.443 714.027 145.664C715.915 132.708 717.413 122.682 718.52 115.586C715.264 115.586 712.204 115.879 709.34 116.465C706.475 117.051 703.611 117.962 700.746 119.199L699.477 117.246C703.578 112.754 707.257 109.499 710.512 107.48C713.767 105.462 717.087 104.225 720.473 103.77C723.207 83.5872 730.694 66.7578 742.934 53.2812C755.173 39.7396 768.161 32.9688 781.898 32.9688C785.284 32.9688 788.018 33.8477 790.102 35.6055C792.25 37.2982 793.324 39.5117 793.324 42.2461C793.324 43.9388 792.934 45.6315 792.152 47.3242C791.371 48.9518 790.102 50.7747 788.344 52.793ZM819.008 75.1562L821.449 77.5977C819.171 82.8711 817.413 87.6562 816.176 91.9531C814.939 96.1849 814.092 100.254 813.637 104.16C818.064 104.551 821.417 104.844 823.695 105.039C826.039 105.169 827.96 105.234 829.457 105.234C832.647 105.234 835.154 104.974 836.977 104.453C838.799 103.932 840.427 103.053 841.859 101.816L843.422 103.77C839.516 108.587 835.707 111.94 831.996 113.828C828.35 115.651 823.76 116.562 818.227 116.562C816.599 116.562 815.329 116.562 814.418 116.562C813.507 116.497 812.628 116.465 811.781 116.465C809.698 128.314 808.005 138.893 806.703 148.203C805.466 157.513 804.848 163.763 804.848 166.953C804.848 168.32 805.043 169.329 805.434 169.98C805.824 170.632 806.41 170.957 807.191 170.957C808.233 170.957 809.6 170.241 811.293 168.809C812.986 167.376 815.232 164.967 818.031 161.582L822.23 165.586C815.655 173.854 809.242 180.299 802.992 184.922C796.807 189.479 791.501 191.758 787.074 191.758C784.6 191.758 782.647 190.977 781.215 189.414C779.783 187.786 779.066 185.573 779.066 182.773C779.066 178.542 779.913 170.762 781.605 159.434C783.298 148.105 785.837 133.424 789.223 115.391C785.967 115.521 782.875 115.911 779.945 116.562C777.016 117.148 774.118 118.027 771.254 119.199L769.594 115.977C776.495 112.331 784.079 107.09 792.348 100.254C800.681 93.418 809.568 85.0521 819.008 75.1562Z" fill="#912828"/>
<path d="M18.0391 63.0234C19.6667 63.0885 22.1081 63.2513 25.3633 63.5117C36.431 64.2279 43.918 64.5859 47.8242 64.5859C51.7305 64.5859 59.0547 64.2279 69.7969 63.5117C73.0521 63.3164 75.5586 63.1536 77.3164 63.0234L75.7539 68.1992L60.4219 71.4219C58.9245 78.2578 57.4596 85.6471 56.0273 93.5898C54.6602 101.533 53.2604 110.191 51.8281 119.566H107.395C108.632 110.777 109.673 102.314 110.52 94.1758C111.366 85.9727 111.984 78.388 112.375 71.4219L96.1641 68.1992L97.8242 63.0234C104.66 63.5443 110.422 63.9349 115.109 64.1953C119.862 64.4557 123.833 64.5859 127.023 64.5859C131.516 64.5859 139.523 64.1953 151.047 63.4141C153.846 63.2188 155.962 63.0885 157.395 63.0234L155.832 68.1992L140.402 71.4219C136.301 90.5625 132.948 109.345 130.344 127.77C127.74 146.129 125.884 164.065 124.777 181.578L140.793 184.801L139.133 189.977C134.641 189.651 130.148 189.391 125.656 189.195C121.229 189.065 115.891 189 109.641 189C103.26 189 97.7917 189.065 93.2344 189.195C88.7422 189.391 84.2826 189.651 79.8555 189.977L81.418 184.801L96.8477 181.578C98.5404 173.701 100.168 165.204 101.73 156.09C103.358 146.975 104.921 137.275 106.418 126.988H50.7539C49.2565 137.405 48.0195 147.138 47.043 156.188C46.0664 165.237 45.3828 173.701 44.9922 181.578L61.0078 184.801L59.3477 189.977C54.8555 189.651 50.3633 189.391 45.8711 189.195C41.444 189.065 36.0729 189 29.7578 189C23.4427 189 18.0065 189.065 13.4492 189.195C8.95703 189.391 4.4974 189.651 0.0703125 189.977L1.63281 184.801L16.9648 181.578C20.9362 162.633 24.1914 143.948 26.7305 125.523C29.3346 107.034 31.2227 89 32.3945 71.4219L16.3789 68.1992L18.0391 63.0234ZM253.195 96.0312C249.549 111.917 245.871 133.01 242.16 159.312C238.449 185.549 235.129 203.323 232.199 212.633C227.577 227.151 219.374 238.805 207.59 247.594C195.871 256.383 182.72 260.777 168.137 260.777C161.822 260.777 157.004 259.703 153.684 257.555C150.298 255.471 148.605 252.477 148.605 248.57C148.605 246.552 149.029 244.599 149.875 242.711C150.656 240.823 151.893 239.065 153.586 237.438C157.948 241.669 162.538 244.924 167.355 247.203C172.238 249.482 177.056 250.621 181.809 250.621C197.564 250.621 209.706 223.961 218.234 170.641C219.732 161.266 220.904 153.974 221.75 148.766C212.701 161.201 203.456 171.227 194.016 178.844C184.641 186.396 177.154 190.172 171.555 190.172C169.211 190.172 167.453 189.521 166.281 188.219C165.109 186.917 164.523 184.898 164.523 182.164C164.523 177.021 165.988 167.548 168.918 153.746C171.913 139.879 173.41 129.495 173.41 122.594C173.41 121.357 173.182 120.38 172.727 119.664C172.271 118.948 171.62 118.59 170.773 118.59C169.862 118.59 168.723 119.143 167.355 120.25C165.988 121.357 164.133 123.277 161.789 126.012L157.785 122.398C163.97 114.586 169.992 108.466 175.852 104.039C181.711 99.612 186.691 97.3984 190.793 97.3984C193.462 97.3984 195.448 98.2773 196.75 100.035C198.117 101.728 198.801 104.332 198.801 107.848C198.801 114.293 197.271 124.319 194.211 137.926C191.216 151.533 189.719 161.103 189.719 166.637C189.719 167.874 189.979 168.85 190.5 169.566C191.086 170.283 191.835 170.641 192.746 170.641C197.759 170.641 204.432 164 212.766 150.719C221.164 137.438 226.503 122.008 228.781 104.43C232.688 103.258 238.449 101.305 246.066 98.5703C249.191 97.3984 251.568 96.5521 253.195 96.0312ZM292.062 180.211C294.471 180.862 296.587 181.35 298.41 181.676C300.233 182.001 301.861 182.164 303.293 182.164C308.501 182.164 312.766 180.895 316.086 178.355C319.471 175.751 322.401 171.422 324.875 165.367C327.349 159.443 329.432 152.314 331.125 143.98C332.818 135.647 333.664 128.648 333.664 122.984C333.664 120.771 333.273 119.143 332.492 118.102C331.776 116.995 330.637 116.441 329.074 116.441C323.605 116.441 316.704 122.952 308.371 135.973C300.103 148.993 294.667 163.74 292.062 180.211ZM298.02 138.805C307.525 126.109 316.867 116.051 326.047 108.629C335.292 101.142 342.909 97.3984 348.898 97.3984C352.414 97.3984 355.116 99.0586 357.004 102.379C358.892 105.699 359.836 110.517 359.836 116.832C359.836 129.072 356.971 140.725 351.242 151.793C345.578 162.861 337.57 172.138 327.219 179.625C322.01 183.336 316.542 186.168 310.812 188.121C305.083 190.009 299.224 190.953 293.234 190.953H290.695C287.049 212.633 278.944 229.69 266.379 242.125C253.879 254.56 238.775 260.777 221.066 260.777C214.621 260.777 209.706 259.736 206.32 257.652C202.935 255.569 201.242 252.542 201.242 248.57C201.242 246.617 201.698 244.697 202.609 242.809C203.456 240.921 204.725 239.13 206.418 237.438C210.975 241.734 215.663 244.99 220.48 247.203C225.233 249.482 229.953 250.621 234.641 250.621C242.062 250.621 248.052 247.789 252.609 242.125C257.102 236.526 260.975 226.826 264.23 213.023C265.988 205.667 267.583 197.984 269.016 189.977C270.448 182.034 272.076 171.715 273.898 159.02C275.526 146.91 276.633 138.349 277.219 133.336C277.805 128.323 278.098 124.677 278.098 122.398C278.098 120.576 277.87 119.306 277.414 118.59C277.023 117.809 276.372 117.418 275.461 117.418C274.419 117.418 272.889 118.199 270.871 119.762C268.853 121.259 266.639 123.342 264.23 126.012L260.227 122.398C267.583 114.521 274.419 108.401 280.734 104.039C287.049 99.612 292.16 97.3984 296.066 97.3984C298.475 97.3984 300.233 98.1797 301.34 99.7422C302.512 101.24 303.098 103.583 303.098 106.773C303.098 109.768 302.642 114.163 301.73 119.957C300.819 125.686 299.582 131.969 298.02 138.805ZM397.922 141.832C397.206 144.762 396.685 147.757 396.359 150.816C396.034 153.811 395.871 156.871 395.871 159.996C395.871 164.358 396.685 167.646 398.312 169.859C399.94 172.073 402.316 173.18 405.441 173.18C408.892 173.18 412.798 171.585 417.16 168.395C421.587 165.204 426.307 160.615 431.32 154.625L436.105 159.02C428.163 169.111 419.829 177.053 411.105 182.848C402.382 188.577 394.374 191.441 387.082 191.441C381.548 191.441 377.382 189.651 374.582 186.07C371.848 182.424 370.48 176.988 370.48 169.762C370.48 160.777 372.141 151.565 375.461 142.125C378.846 132.62 383.241 124.71 388.645 118.395C393.853 112.275 400.168 107.197 407.59 103.16C415.012 99.0586 421.587 97.0078 427.316 97.0078C431.613 97.0078 434.999 98.1471 437.473 100.426C440.012 102.704 441.281 105.829 441.281 109.801C441.281 116.767 437.18 123.342 428.977 129.527C420.839 135.712 410.487 139.814 397.922 141.832ZM398.898 135.387C404.823 135.387 409.576 133.792 413.156 130.602C416.737 127.411 418.527 123.212 418.527 118.004C418.527 115.335 418.007 113.284 416.965 111.852C415.923 110.354 414.426 109.605 412.473 109.605C409.608 109.605 407.232 111.266 405.344 114.586C403.521 117.906 401.372 124.84 398.898 135.387ZM514.426 129.039C512.863 126.109 511.529 124.221 510.422 123.375C509.38 122.464 508.111 122.008 506.613 122.008C501.73 122.008 496.294 127.997 490.305 139.977C484.315 151.956 480.279 166.441 478.195 183.434C474.549 184.41 469.797 185.94 463.938 188.023C458.078 190.042 454.367 191.311 452.805 191.832C456.19 176.988 458.859 163.186 460.812 150.426C462.831 137.6 463.84 128.323 463.84 122.594C463.84 120.706 463.645 119.371 463.254 118.59C462.863 117.809 462.18 117.418 461.203 117.418C460.161 117.418 458.632 118.199 456.613 119.762C454.595 121.259 452.382 123.342 449.973 126.012L446.164 122.398C453 114.716 459.641 108.596 466.086 104.039C472.596 99.4818 477.772 97.2031 481.613 97.2031C484.022 97.2031 485.845 98.0169 487.082 99.6445C488.384 101.207 489.035 103.518 489.035 106.578C489.035 109.703 488.547 114.228 487.57 120.152C486.659 126.012 485.259 133.108 483.371 141.441L484.445 141.637C491.151 127.9 497.824 117.06 504.465 109.117C511.105 101.174 516.737 97.2031 521.359 97.2031C523.964 97.2031 526.014 98.1146 527.512 99.9375C529.009 101.695 529.758 104.104 529.758 107.164C529.758 111.07 528.456 114.879 525.852 118.59C523.247 122.301 519.439 125.784 514.426 129.039ZM585.227 120.445C582.427 116.279 579.4 113.056 576.145 110.777C572.954 108.499 569.862 107.359 566.867 107.359C564.198 107.359 561.952 108.141 560.129 109.703C558.306 111.266 557.395 113.154 557.395 115.367C557.395 118.232 560.324 122.561 566.184 128.355C567.03 129.202 567.648 129.82 568.039 130.211C573.898 136.07 577.772 140.921 579.66 144.762C581.613 148.603 582.59 152.802 582.59 157.359C582.59 166.083 578.358 173.831 569.895 180.602C561.431 187.372 551.535 190.758 540.207 190.758C535.064 190.758 531.092 189.781 528.293 187.828C525.559 185.875 524.191 183.076 524.191 179.43C524.191 177.346 524.94 175.165 526.438 172.887C527.87 170.608 530.344 167.841 533.859 164.586C536.529 169.534 539.621 173.375 543.137 176.109C546.717 178.844 550.428 180.211 554.27 180.211C557.069 180.211 559.348 179.43 561.105 177.867C562.928 176.24 563.84 174.156 563.84 171.617C563.84 169.729 563.254 167.841 562.082 165.953C560.91 164.065 558.632 161.493 555.246 158.238C554.921 157.913 554.497 157.49 553.977 156.969C543.625 147.138 538.449 138.089 538.449 129.82C538.449 120.901 542.518 113.219 550.656 106.773C558.794 100.263 568.332 97.0078 579.27 97.0078C584.217 97.0078 588.059 97.9518 590.793 99.8398C593.592 101.728 594.992 104.397 594.992 107.848C594.992 110.257 594.178 112.503 592.551 114.586C590.988 116.669 588.547 118.622 585.227 120.445ZM656.906 126.793C656.906 120.413 655.93 115.595 653.977 112.34C652.089 109.02 649.289 107.359 645.578 107.359C639.589 107.359 634.803 112.177 631.223 121.812C627.707 131.383 625.949 144.241 625.949 160.387C625.949 166.962 626.893 171.943 628.781 175.328C630.734 178.714 633.599 180.406 637.375 180.406C643.299 180.406 648.02 175.589 651.535 165.953C655.116 156.318 656.906 143.264 656.906 126.793ZM658.957 96.8125C667.03 96.8125 673.052 99.026 677.023 103.453C680.995 107.815 682.98 114.456 682.98 123.375C682.98 141.93 677.023 157.815 665.109 171.031C653.26 184.182 639.263 190.758 623.117 190.758C615.695 190.758 610.064 188.544 606.223 184.117C602.447 179.69 600.559 173.115 600.559 164.391C600.559 154.299 602.382 144.794 606.027 135.875C609.673 126.956 614.784 119.404 621.359 113.219C626.568 108.271 632.622 104.299 639.523 101.305C646.49 98.3099 652.967 96.8125 658.957 96.8125ZM780.344 51.793C776.633 49.319 772.987 47.431 769.406 46.1289C765.891 44.8268 762.603 44.1758 759.543 44.1758C750.168 44.1758 742.486 60.875 736.496 94.2734C735.845 98.1797 735.324 101.142 734.934 103.16C737.798 103.486 740.793 103.714 743.918 103.844C747.108 103.974 750.526 104.039 754.172 104.039C757.232 104.039 759.706 103.779 761.594 103.258C763.547 102.737 765.272 101.923 766.77 100.816L768.137 103.355C764.23 107.913 759.999 111.103 755.441 112.926C750.884 114.684 744.309 115.562 735.715 115.562H733.078C732.427 120.12 731.483 126.728 730.246 135.387C723.996 179.462 716.835 208.336 708.762 222.008C701.926 233.466 692.128 242.809 679.367 250.035C666.607 257.327 653.651 260.973 640.5 260.973C634.706 260.973 630.246 259.931 627.121 257.848C623.931 255.764 622.336 252.802 622.336 248.961C622.336 247.333 622.727 245.608 623.508 243.785C624.289 241.962 625.493 240.042 627.121 238.023C630.832 241.734 635.129 244.501 640.012 246.324C644.829 248.212 650.201 249.156 656.125 249.156C665.109 249.156 672.434 246.91 678.098 242.418C683.762 237.991 688.221 230.927 691.477 221.227C695.253 209.964 700.103 184.443 706.027 144.664C707.915 131.708 709.413 121.682 710.52 114.586C707.264 114.586 704.204 114.879 701.34 115.465C698.475 116.051 695.611 116.962 692.746 118.199L691.477 116.246C695.578 111.754 699.257 108.499 702.512 106.48C705.767 104.462 709.087 103.225 712.473 102.77C715.207 82.5872 722.694 65.7578 734.934 52.2812C747.173 38.7396 760.161 31.9688 773.898 31.9688C777.284 31.9688 780.018 32.8477 782.102 34.6055C784.25 36.2982 785.324 38.5117 785.324 41.2461C785.324 42.9388 784.934 44.6315 784.152 46.3242C783.371 47.9518 782.102 49.7747 780.344 51.793ZM811.008 74.1562L813.449 76.5977C811.171 81.8711 809.413 86.6562 808.176 90.9531C806.939 95.1849 806.092 99.2539 805.637 103.16C810.064 103.551 813.417 103.844 815.695 104.039C818.039 104.169 819.96 104.234 821.457 104.234C824.647 104.234 827.154 103.974 828.977 103.453C830.799 102.932 832.427 102.053 833.859 100.816L835.422 102.77C831.516 107.587 827.707 110.94 823.996 112.828C820.35 114.651 815.76 115.562 810.227 115.562C808.599 115.562 807.329 115.562 806.418 115.562C805.507 115.497 804.628 115.465 803.781 115.465C801.698 127.314 800.005 137.893 798.703 147.203C797.466 156.513 796.848 162.763 796.848 165.953C796.848 167.32 797.043 168.329 797.434 168.98C797.824 169.632 798.41 169.957 799.191 169.957C800.233 169.957 801.6 169.241 803.293 167.809C804.986 166.376 807.232 163.967 810.031 160.582L814.23 164.586C807.655 172.854 801.242 179.299 794.992 183.922C788.807 188.479 783.501 190.758 779.074 190.758C776.6 190.758 774.647 189.977 773.215 188.414C771.783 186.786 771.066 184.573 771.066 181.773C771.066 177.542 771.913 169.762 773.605 158.434C775.298 147.105 777.837 132.424 781.223 114.391C777.967 114.521 774.875 114.911 771.945 115.562C769.016 116.148 766.118 117.027 763.254 118.199L761.594 114.977C768.495 111.331 776.079 106.09 784.348 99.2539C792.681 92.418 801.568 84.0521 811.008 74.1562Z" fill="#FA0101"/>
</svg>
