<svg width="175" height="261" viewBox="0 0 175 261" fill="none" xmlns="http://www.w3.org/2000/svg">
<path d="M35.0391 63.0234C36.6667 63.0885 39.1081 63.2513 42.3633 63.5117C53.431 64.2279 60.918 64.5859 64.8242 64.5859C68.7305 64.5859 76.0547 64.2279 86.7969 63.5117C90.0521 63.3164 92.5586 63.1536 94.3164 63.0234L92.7539 68.1992L77.4219 71.4219C75.9245 78.2578 74.4596 85.6471 73.0273 93.5898C71.6602 101.533 70.2604 110.191 68.8281 119.566H124.395C125.632 110.777 126.673 102.314 127.52 94.1758C128.366 85.9727 128.984 78.388 129.375 71.4219L113.164 68.1992L114.824 63.0234C121.66 63.5443 127.422 63.9349 132.109 64.1953C136.862 64.4557 140.833 64.5859 144.023 64.5859C148.516 64.5859 156.523 64.1953 168.047 63.4141C170.846 63.2188 172.962 63.0885 174.395 63.0234L172.832 68.1992L157.402 71.4219C153.301 90.5625 149.948 109.345 147.344 127.77C144.74 146.129 142.884 164.065 141.777 181.578L157.793 184.801L156.133 189.977C151.641 189.651 147.148 189.391 142.656 189.195C138.229 189.065 132.891 189 126.641 189C120.26 189 114.792 189.065 110.234 189.195C105.742 189.391 101.283 189.651 96.8555 189.977L98.418 184.801L113.848 181.578C115.54 173.701 117.168 165.204 118.73 156.09C120.358 146.975 121.921 137.275 123.418 126.988H67.7539C66.2565 137.405 65.0195 147.138 64.043 156.188C63.0664 165.237 62.3828 173.701 61.9922 181.578L78.0078 184.801L76.3477 189.977C71.8555 189.651 67.3633 189.391 62.8711 189.195C58.444 189.065 53.0729 189 46.7578 189C40.4427 189 35.0065 189.065 30.4492 189.195C25.957 189.391 21.4974 189.651 17.0703 189.977L18.6328 184.801L33.9648 181.578C37.9362 162.633 41.1914 143.948 43.7305 125.523C46.3346 107.034 48.2227 89 49.3945 71.4219L33.3789 68.1992L35.0391 63.0234Z" fill="#8B1212"/>
<path d="M18.0391 63.0234C19.6667 63.0885 22.1081 63.2513 25.3633 63.5117C36.431 64.2279 43.918 64.5859 47.8242 64.5859C51.7305 64.5859 59.0547 64.2279 69.7969 63.5117C73.0521 63.3164 75.5586 63.1536 77.3164 63.0234L75.7539 68.1992L60.4219 71.4219C58.9245 78.2578 57.4596 85.6471 56.0273 93.5898C54.6602 101.533 53.2604 110.191 51.8281 119.566H107.395C108.632 110.777 109.673 102.314 110.52 94.1758C111.366 85.9727 111.984 78.388 112.375 71.4219L96.1641 68.1992L97.8242 63.0234C104.66 63.5443 110.422 63.9349 115.109 64.1953C119.862 64.4557 123.833 64.5859 127.023 64.5859C131.516 64.5859 139.523 64.1953 151.047 63.4141C153.846 63.2188 155.962 63.0885 157.395 63.0234L155.832 68.1992L140.402 71.4219C136.301 90.5625 132.948 109.345 130.344 127.77C127.74 146.129 125.884 164.065 124.777 181.578L140.793 184.801L139.133 189.977C134.641 189.651 130.148 189.391 125.656 189.195C121.229 189.065 115.891 189 109.641 189C103.26 189 97.7917 189.065 93.2344 189.195C88.7422 189.391 84.2826 189.651 79.8555 189.977L81.418 184.801L96.8477 181.578C98.5404 173.701 100.168 165.204 101.73 156.09C103.358 146.975 104.921 137.275 106.418 126.988H50.7539C49.2565 137.405 48.0195 147.138 47.043 156.188C46.0664 165.237 45.3828 173.701 44.9922 181.578L61.0078 184.801L59.3477 189.977C54.8555 189.651 50.3633 189.391 45.8711 189.195C41.444 189.065 36.0729 189 29.7578 189C23.4427 189 18.0065 189.065 13.4492 189.195C8.95703 189.391 4.4974 189.651 0.0703125 189.977L1.63281 184.801L16.9648 181.578C20.9362 162.633 24.1914 143.948 26.7305 125.523C29.3346 107.034 31.2227 89 32.3945 71.4219L16.3789 68.1992L18.0391 63.0234Z" fill="#FF0000"/>
</svg>
